<svg width="137" height="114" viewBox="0 0 137 114" fill="none" xmlns="http://www.w3.org/2000/svg">
<rect x="79.1823" y="8.41596" width="10.047" height="68.8052" transform="rotate(-40 79.1823 8.41596)" fill="#FF2600" stroke="#02539C" stroke-width="0.5"/>
<rect x="89.9425" y="109.633" width="10.047" height="68.8052" transform="rotate(-143 89.9425 109.633)" fill="#FF2600" stroke="#02539C" stroke-width="0.5"/>
<rect x="6.25" y="31.25" width="79.5" height="57.5" fill="#FF2600" stroke="#02539C" stroke-width="0.5"/>
<path d="M21.5 34.5H41C41.8284 34.5 42.5 35.1716 42.5 36V40C42.5 40.8284 41.8284 41.5 41 41.5H21.5V34.5Z" fill="white" stroke="#02539C"/>
<path d="M21.5 78.5H41C41.8284 78.5 42.5 79.1716 42.5 80V84C42.5 84.8284 41.8284 85.5 41 85.5H21.5V78.5Z" fill="white" stroke="#02539C"/>
<rect x="21.5" y="41.5" width="12" height="37" fill="white" stroke="#02539C"/>
<path d="M36.5 43.5H50C50.8284 43.5 51.5 44.1716 51.5 45V75C51.5 75.8284 50.8284 76.5 50 76.5H36.5V43.5Z" fill="white" stroke="#02539C"/>
<rect x="13.5" y="74.5" width="8" height="4" fill="white"/>
<rect x="13.5" y="74.5" width="8" height="4" fill="white"/>
<rect x="13.5" y="74.5" width="8" height="4" fill="white"/>
<rect x="13.5" y="74.5" width="8" height="4" stroke="#02539C"/>
<rect x="13.5" y="41.5" width="8" height="4" fill="white"/>
<rect x="13.5" y="41.5" width="8" height="4" fill="white"/>
<rect x="13.5" y="41.5" width="8" height="4" fill="white"/>
<rect x="13.5" y="41.5" width="8" height="4" stroke="#02539C"/>
</svg>
