<svg xmlns="http://www.w3.org/2000/svg" viewBox="0 0 40 40"><circle class="cls-1" fill="#fcfaf7" cx="20" cy="20" r="20"/><path class="cls-2" fill="#b17b67" d="M28.88 29.83c-.15 0-.31-.04-.45-.11l-3.46-1.73c-.2-.1-.3-.16-.41-.19-.06-.02-.12-.03-.19-.04-.11-.02-.22-.01-.45-.01H13.46c-1.28 0-1.99 0-2.65-.34a3.1 3.1 0 0 1-1.35-1.35c-.34-.66-.34-1.37-.34-2.65v-7.92c0-1.28 0-1.99.34-2.65.3-.58.76-1.05 1.35-1.35.66-.34 1.37-.34 2.65-.34h12.08c1.28 0 1.99 0 2.65.34.58.3 1.05.76 1.35 1.35.34.66.34 1.37.34 2.65v13.33a1 1 0 0 1-1 1ZM13.46 13.17c-.91 0-1.51 0-1.74.12-.21.1-.37.27-.47.47-.12.23-.12.83-.12 1.74v7.92c0 .91 0 1.51.12 1.74.1.21.27.37.47.47.23.12.83.12 1.74.12h10.46c.36 0 .54 0 .72.03s.37.07.55.13c.17.06.33.13.65.29l2.03 1.01V15.5c0-.91 0-1.51-.12-1.74-.1-.21-.27-.37-.47-.47-.23-.12-.83-.12-1.74-.12zm10.22 7.29c-.55 0-1-.45-1-1s.44-1 1-1c.55 0 1 .45 1 1s-.45 1-1 1m-4.17 0c-.55 0-1-.45-1-1s.44-1 .99-1h.01c.55 0 1 .45 1 1s-.45 1-1 1m-4.17 0c-.55 0-1.01-.45-1.01-1s.44-1 1-1h.01c.55 0 1 .45 1 1s-.45 1-1 1"/></svg>