<svg width="33" height="33" viewBox="0 0 33 33" fill="none" xmlns="http://www.w3.org/2000/svg">
<path d="M24.192 24.505H8.809C8.533 24.505 8.309 24.281 8.309 24.005V15.883C8.309 13.613 6.462 11.768 4.193 11.768C2.432 11.768 1 13.199 1 14.96C1 16.314 2.101 17.414 3.454 17.414C4.481 17.414 5.317 16.578 5.317 15.551C5.317 14.784 4.693 14.16 3.926 14.16C3.65 14.16 3.426 13.936 3.426 13.66C3.426 13.384 3.65 13.16 3.926 13.16C5.244 13.16 6.317 14.232 6.317 15.551C6.317 17.13 5.033 18.414 3.454 18.414C1.55 18.414 0 16.864 0 14.96C0 12.648 1.881 10.768 4.192 10.768C7.013 10.768 9.308 13.063 9.308 15.883V23.505H23.692V15.883C23.692 13.063 25.987 10.768 28.807 10.768C31.119 10.768 32.999 12.649 32.999 14.96C32.999 16.864 31.449 18.414 29.545 18.414C27.967 18.414 26.683 17.13 26.683 15.551C26.683 14.233 27.755 13.16 29.073 13.16C29.349 13.16 29.573 13.384 29.573 13.66C29.573 13.936 29.349 14.16 29.073 14.16C28.306 14.16 27.683 14.784 27.683 15.551C27.683 16.578 28.518 17.414 29.545 17.414C30.899 17.414 31.999 16.313 31.999 14.96C31.999 13.199 30.567 11.768 28.807 11.768C26.537 11.768 24.692 13.614 24.692 15.883V24.005C24.692 24.281 24.469 24.505 24.192 24.505Z" fill="black"/>
<path d="M28.091 29.304H5.01802C3.88002 29.304 2.95502 28.378 2.95502 27.241V17.915C2.95502 17.639 3.17902 17.415 3.45502 17.415C3.73102 17.415 3.95502 17.639 3.95502 17.915V27.241C3.95502 27.827 4.43302 28.304 5.01802 28.304H28.091C28.677 28.304 29.154 27.826 29.154 27.241V17.915C29.154 17.639 29.378 17.415 29.654 17.415C29.93 17.415 30.154 17.639 30.154 17.915V27.241C30.154 28.378 29.229 29.304 28.091 29.304Z" fill="black"/>
<path d="M24.192 20.271H8.80902C8.53302 20.271 8.30902 20.047 8.30902 19.771C8.30902 19.495 8.53302 19.271 8.80902 19.271H24.193C24.469 19.271 24.693 19.495 24.693 19.771C24.693 20.047 24.469 20.271 24.192 20.271Z" fill="black"/>
<path d="M8.80902 30.927C8.53302 30.927 8.30902 30.703 8.30902 30.427V29.2C8.30902 28.924 8.53302 28.7 8.80902 28.7C9.08502 28.7 9.30902 28.924 9.30902 29.2V30.427C9.30902 30.703 9.08502 30.927 8.80902 30.927Z" fill="black"/>
<path d="M24.192 30.927C23.916 30.927 23.692 30.703 23.692 30.427V29.2C23.692 28.924 23.916 28.7 24.192 28.7C24.468 28.7 24.692 28.924 24.692 29.2V30.427C24.692 30.703 24.469 30.927 24.192 30.927Z" fill="black"/>
<path d="M27.563 11.768C27.287 11.768 27.063 11.544 27.063 11.268V8.009C27.063 5.287 24.849 3.073 22.127 3.073H10.98C8.25801 3.073 6.04401 5.287 6.04401 8.009V11.268C6.04401 11.544 5.82001 11.768 5.54401 11.768C5.26801 11.768 5.04401 11.544 5.04401 11.268V8.009C5.04401 4.737 7.70701 2.073 10.98 2.073H22.127C25.399 2.073 28.063 4.736 28.063 8.009V11.268C28.063 11.544 27.84 11.768 27.563 11.768Z" fill="black"/>
</svg>
