<svg width="16" height="16" viewBox="0 0 16 16" fill="none" xmlns="http://www.w3.org/2000/svg">
<g clip-path="url(#clip0_170_6)">
<path fill-rule="evenodd" clip-rule="evenodd" d="M1 14C1 14.2652 1.10536 14.5196 1.29289 14.7071C1.48043 14.8946 1.73478 15 2 15L14 15C14.2652 15 14.5196 14.8946 14.7071 14.7071C14.8946 14.5196 15 14.2652 15 14L15 2C15 1.73478 14.8946 1.48043 14.7071 1.29289C14.5196 1.10536 14.2652 1 14 1L2 1C1.73478 1 1.48043 1.10536 1.29289 1.29289C1.10536 1.48043 1 1.73478 1 2L1 14ZM16 14C16 14.5304 15.7893 15.0391 15.4142 15.4142C15.0391 15.7893 14.5304 16 14 16L2 16C1.46957 16 0.96086 15.7893 0.585787 15.4142C0.210714 15.0391 0 14.5304 0 14L0 2C0 1.46957 0.210714 0.96086 0.585787 0.585787C0.96086 0.210714 1.46957 0 2 0H14C14.5304 0 15.0391 0.210714 15.4142 0.585787C15.7893 0.96086 16 1.46957 16 2V14ZM7.5 11.5C7.5 11.6326 7.55268 11.7598 7.64645 11.8536C7.74021 11.9473 7.86739 12 8 12C8.13261 12 8.25979 11.9473 8.35355 11.8536C8.44732 11.7598 8.5 11.6326 8.5 11.5V5.707L10.646 7.854C10.7399 7.94789 10.8672 8.00063 11 8.00063C11.1328 8.00063 11.2601 7.94789 11.354 7.854C11.4479 7.76011 11.5006 7.63278 11.5006 7.5C11.5006 7.36722 11.4479 7.23989 11.354 7.146L8.354 4.146C8.30755 4.09944 8.25238 4.06249 8.19163 4.03729C8.13089 4.01208 8.06577 3.99911 8 3.99911C7.93423 3.99911 7.86911 4.01208 7.80837 4.03729C7.74762 4.06249 7.69245 4.09944 7.646 4.146L4.646 7.146C4.55211 7.23989 4.49937 7.36722 4.49937 7.5C4.49937 7.63278 4.55211 7.76011 4.646 7.854C4.73989 7.94789 4.86722 8.00063 5 8.00063C5.13278 8.00063 5.26011 7.94789 5.354 7.854L7.5 5.707L7.5 11.5Z" fill="white"/>
</g>
<defs>
<clipPath id="clip0_170_6">
<rect width="16" height="16" fill="white" transform="matrix(-1 0 0 -1 16 16)"/>
</clipPath>
</defs>
</svg>
