<svg width="33" height="33" viewBox="0 0 33 33" fill="none" xmlns="http://www.w3.org/2000/svg">
<path d="M31.4404 27.76C29.4488 27.76 27.4508 27.76 25.4592 27.76C21.3664 27.76 17.2736 27.76 13.1808 27.76C9.82283 27.76 6.47127 27.76 3.11326 27.76C2.59764 27.76 2.08201 27.76 1.56639 27.76C1.72752 27.9211 1.88865 28.0822 2.04978 28.2434C2.04978 26.6643 2.04978 25.0852 2.04978 23.4996C2.04978 22.8809 2.04978 22.2621 2.04978 21.6434C2.04978 20.3543 2.48162 19.0781 3.28084 18.0662C4.1574 16.9641 5.3949 16.2422 6.76775 15.9715C7.24471 15.8812 7.73455 15.8812 8.21795 15.8812C9.62947 15.8812 11.0474 15.8812 12.459 15.8812C16.2746 15.8812 20.0902 15.8812 23.9123 15.8812C24.3119 15.8812 24.7115 15.8812 25.1176 15.8812C26.0586 15.8812 26.9738 16.0746 27.8181 16.5C29.0363 17.1187 30.0224 18.1822 30.5381 19.4455C30.8797 20.2898 30.9635 21.1535 30.9635 22.0559C30.9635 24.1119 30.9635 26.1744 30.9635 28.2305C30.9635 28.8557 31.9303 28.8557 31.9303 28.2305C31.9303 26.6514 31.9303 25.0723 31.9303 23.4867C31.9303 22.868 31.9303 22.2492 31.9303 21.6305C31.9303 20.2705 31.5178 18.9234 30.7443 17.8084C29.4359 15.9135 27.2961 14.908 25.0209 14.908C23.7576 14.908 22.4943 14.908 21.231 14.908C17.3445 14.908 13.4515 14.908 9.56502 14.908C8.37908 14.908 7.17381 14.8371 6.0201 15.1465C3.12615 15.9199 1.11521 18.6527 1.09588 21.6176C1.08299 23.8219 1.09588 26.0262 1.09588 28.224C1.09588 28.4883 1.31502 28.7074 1.57928 28.7074C3.57088 28.7074 5.56893 28.7074 7.56053 28.7074C11.6533 28.7074 15.7461 28.7074 19.8388 28.7074C23.1969 28.7074 26.5484 28.7074 29.9064 28.7074C30.4221 28.7074 30.9377 28.7074 31.4533 28.7074C32.0656 28.7268 32.0656 27.76 31.4404 27.76Z" fill="black"/>
<path d="M1.6887 24.228C3.6803 23.7703 5.73635 23.0807 7.79885 23.4158C8.99124 23.6092 10.1127 23.9895 11.3438 24.0281C12.5619 24.0604 13.7157 23.7446 14.8951 23.4867C15.8684 23.2676 16.8996 23.2676 17.8858 23.4416C18.3434 23.519 18.7946 23.6414 19.2457 23.7446C20.7346 24.0862 22.1912 24.099 23.6866 23.7574C24.1184 23.6608 24.5438 23.5512 24.9756 23.461C25.9553 23.2612 26.9865 23.274 27.9662 23.461C28.7848 23.6156 29.5905 23.8348 30.4026 24.0153C30.7119 24.0862 31.0149 24.1571 31.3242 24.228C31.9301 24.3698 32.1879 23.4352 31.5821 23.2934C29.5776 22.8293 27.528 22.1655 25.4461 22.4104C24.2537 22.5522 23.1194 22.9776 21.9141 23.0485C20.6959 23.1194 19.5551 22.81 18.3821 22.5522C17.3959 22.333 16.3711 22.3008 15.3657 22.4297C14.8178 22.5006 14.2828 22.636 13.7414 22.7584C13.1098 22.9067 12.4846 23.0291 11.8336 23.0549C11.0731 23.0871 10.3319 22.9905 9.59065 22.8164C8.15335 22.4877 6.76116 22.2235 5.27874 22.4426C4.37639 22.5715 3.48694 22.8229 2.60393 23.0227C2.21721 23.1129 1.83049 23.2031 1.44378 23.2869C0.825026 23.4416 1.08284 24.3698 1.6887 24.228Z" fill="black"/>
<path d="M3.13887 18.1113C3.13887 15.1272 3.13887 12.1365 3.13887 9.15236C3.13887 6.71603 5.52364 5.24005 7.75371 5.24005C8.78496 5.24005 9.81621 5.24005 10.8475 5.24005C14.792 5.24005 18.743 5.24005 22.6875 5.24005C23.5834 5.24005 24.4793 5.23361 25.3752 5.24005C26.7803 5.25294 28.2563 5.8588 29.1264 6.99318C29.6613 7.68927 29.8611 8.48204 29.8611 9.34572C29.8611 12.2654 29.8611 15.1916 29.8611 18.1113C29.8611 18.7365 30.8279 18.7365 30.8279 18.1113C30.8279 15.1272 30.8279 12.1365 30.8279 9.15236C30.8279 6.26486 28.1596 4.38282 25.4719 4.2797C24.5631 4.24103 23.6479 4.2797 22.7391 4.2797C18.7945 4.2797 14.8436 4.2797 10.899 4.2797C9.85489 4.2797 8.8043 4.2797 7.76016 4.2797C5.0918 4.2797 2.39766 6.02638 2.17852 8.84943C2.13985 9.31349 2.17207 9.79044 2.17207 10.2545C2.17207 11.202 2.17207 12.1494 2.17207 13.0969C2.17207 14.7404 2.17207 16.3776 2.17207 18.0211C2.17207 18.0533 2.17207 18.0856 2.17207 18.1178C2.17207 18.7365 3.13887 18.7365 3.13887 18.1113Z" fill="black"/>
<path d="M14.8178 14.9273C13.258 14.9273 11.6983 14.9273 10.1385 14.9273C9.4295 14.9273 8.72052 14.9273 8.01153 14.9273C7.79239 14.9273 7.61837 14.8371 7.61837 14.5922C7.61837 14.2506 7.61837 13.9025 7.61837 13.5609C7.61837 12.7681 7.61837 11.9689 7.61837 11.1762C7.61837 10.8926 7.87618 10.8732 8.08888 10.8732C8.38536 10.8732 8.68829 10.8732 8.98477 10.8732C10.8217 10.8732 12.6586 10.8732 14.4955 10.8732C14.7404 10.8732 15.0949 10.8217 15.1143 11.1762C15.1336 11.5306 15.1143 11.8916 15.1143 12.2461C15.1143 12.8519 15.1143 13.4514 15.1143 14.0572C15.1143 14.3215 15.2303 14.9015 14.8178 14.9273C14.199 14.9596 14.1926 15.9264 14.8178 15.8941C15.5268 15.8555 16.0875 15.3269 16.0875 14.6051C16.0875 14.2764 16.0875 13.9476 16.0875 13.6189C16.0875 12.8068 16.0875 11.9947 16.0875 11.1762C16.0875 10.4865 15.5139 9.89999 14.8178 9.89999C14.6438 9.89999 14.4762 9.89999 14.3022 9.89999C13.3998 9.89999 12.4975 9.89999 11.5951 9.89999C10.6348 9.89999 9.67442 9.89999 8.71407 9.89999C7.94708 9.89999 7.08985 9.83553 6.74181 10.7121C6.61934 11.0215 6.65802 11.3695 6.65802 11.6918C6.65802 12.1881 6.65802 12.6844 6.65802 13.1806C6.65802 13.606 6.65802 14.025 6.65802 14.4504C6.65802 14.9789 6.82559 15.4172 7.28321 15.7201C7.67638 15.9779 8.30802 15.8941 8.75919 15.8941C9.55196 15.8941 10.3512 15.8941 11.144 15.8941C12.3686 15.8941 13.5932 15.8941 14.8178 15.8941C15.443 15.8941 15.443 14.9273 14.8178 14.9273Z" fill="black"/>
<path d="M25.0787 14.9273C23.5189 14.9273 21.9592 14.9273 20.3994 14.9273C19.6904 14.9273 18.9814 14.9273 18.2725 14.9273C18.0533 14.9273 17.8793 14.8371 17.8793 14.5922C17.8793 14.2506 17.8793 13.9025 17.8793 13.5609C17.8793 12.7681 17.8793 11.9689 17.8793 11.1762C17.8793 10.8926 18.1371 10.8732 18.3498 10.8732C18.6463 10.8732 18.9492 10.8732 19.2457 10.8732C21.0826 10.8732 22.9195 10.8732 24.7564 10.8732C25.0014 10.8732 25.3559 10.8217 25.3752 11.1762C25.3945 11.5306 25.3752 11.8916 25.3752 12.2461C25.3752 12.8519 25.3752 13.4514 25.3752 14.0572C25.3816 14.3215 25.4912 14.9015 25.0787 14.9273C24.46 14.9596 24.4535 15.9264 25.0787 15.8941C25.7877 15.8555 26.3484 15.3269 26.3484 14.6051C26.3484 14.2764 26.3484 13.9476 26.3484 13.6189C26.3484 12.8068 26.3484 11.9947 26.3484 11.1762C26.3484 10.4865 25.7748 9.89999 25.0787 9.89999C24.9047 9.89999 24.7371 9.89999 24.5631 9.89999C23.6607 9.89999 22.7584 9.89999 21.8561 9.89999C20.8957 9.89999 19.9353 9.89999 18.975 9.89999C18.208 9.89999 17.3508 9.83553 17.0027 10.7121C16.8803 11.0215 16.9189 11.3695 16.9189 11.6918C16.9189 12.1881 16.9189 12.6844 16.9189 13.1806C16.9189 13.606 16.9189 14.025 16.9189 14.4504C16.9189 14.9789 17.0865 15.4172 17.5441 15.7201C17.9373 15.9779 18.5689 15.8941 19.0201 15.8941C19.8129 15.8941 20.6121 15.8941 21.4049 15.8941C22.6295 15.8941 23.8541 15.8941 25.0787 15.8941C25.7039 15.8941 25.7039 14.9273 25.0787 14.9273Z" fill="black"/>
</svg>
