<svg width="35" height="35" viewBox="0 0 35 35" fill="none" xmlns="http://www.w3.org/2000/svg">
<path d="M7.65624 21.875H9.84374C11.0523 21.875 12.0312 20.8949 12.0312 19.6874V17.5C12.0312 16.2914 11.0523 15.3125 9.84374 15.3125H7.65624C6.44765 15.3125 5.46874 16.2914 5.46874 17.5V19.6874C5.46874 20.8949 6.44765 21.875 7.65624 21.875ZM7.65624 17.5H9.84374V19.6874H7.65624V17.5ZM25.1562 30.6249H27.3437C28.5523 30.6249 29.5313 29.646 29.5313 28.4375V26.25C29.5313 25.0414 28.5523 24.0625 27.3437 24.0625H25.1562C23.9487 24.0625 22.9687 25.0414 22.9687 26.25V28.4375C22.9687 29.646 23.9476 30.6249 25.1562 30.6249ZM25.1562 26.25H27.3437V28.4375H25.1562V26.25ZM25.1562 21.875H27.3437C28.5523 21.875 29.5313 20.8949 29.5313 19.6874V17.5C29.5313 16.2914 28.5523 15.3125 27.3437 15.3125H25.1562C23.9487 15.3125 22.9687 16.2914 22.9687 17.5V19.6874C22.9687 20.8949 23.9476 21.875 25.1562 21.875ZM25.1562 17.5H27.3437V19.6874H25.1562V17.5ZM29.5313 2.1875H25.1562V1.09375C25.1562 0.489989 24.6662 0 24.0625 0C23.4588 0 22.9688 0.489989 22.9688 1.09375V2.1875H12.0313V1.09375C12.0312 0.489989 11.5412 0 10.9375 0C10.3337 0 9.84374 0.489989 9.84374 1.09375V2.1875H5.46874C3.05269 2.1875 1.09375 4.14643 1.09375 6.56249V30.6249C1.09375 33.041 3.05269 35 5.46874 35H29.5312C31.9473 35 33.9062 33.0411 33.9062 30.6249V6.56249C33.9062 4.14638 31.9473 2.1875 29.5313 2.1875ZM31.7188 30.6249C31.7188 31.8335 30.7398 32.8124 29.5313 32.8124H5.46874C4.26015 32.8124 3.28125 31.8324 3.28125 30.6249V10.9375H31.7187V30.6249H31.7188ZM31.7188 8.74999H3.28125V6.56249C3.28125 5.3539 4.26015 4.37499 5.46874 4.37499H9.84374V5.46874C9.84374 6.0725 10.3337 6.56249 10.9375 6.56249C11.5412 6.56249 12.0312 6.0725 12.0312 5.46874V4.37499H22.9687V5.46874C22.9687 6.0725 23.4588 6.56249 24.0625 6.56249C24.6662 6.56249 25.1562 6.0725 25.1562 5.46874V4.37499H29.5313C30.7398 4.37499 31.7188 5.3539 31.7188 6.56249V8.74999ZM16.4062 30.6249H18.5937C19.8023 30.6249 20.7812 29.646 20.7812 28.4375V26.25C20.7812 25.0414 19.8023 24.0625 18.5937 24.0625H16.4062C15.1988 24.0625 14.2187 25.0414 14.2187 26.25V28.4375C14.2187 29.646 15.1976 30.6249 16.4062 30.6249ZM16.4062 26.25H18.5937V28.4375H16.4062V26.25ZM16.4062 21.875H18.5937C19.8023 21.875 20.7812 20.8949 20.7812 19.6874V17.5C20.7812 16.2914 19.8023 15.3125 18.5937 15.3125H16.4062C15.1988 15.3125 14.2187 16.2914 14.2187 17.5V19.6874C14.2187 20.8949 15.1976 21.875 16.4062 21.875ZM16.4062 17.5H18.5937V19.6874H16.4062V17.5ZM7.65624 30.6249H9.84374C11.0523 30.6249 12.0312 29.646 12.0312 28.4375V26.25C12.0312 25.0414 11.0523 24.0625 9.84374 24.0625H7.65624C6.44765 24.0625 5.46874 25.0414 5.46874 26.25V28.4375C5.46874 29.646 6.44765 30.6249 7.65624 30.6249ZM7.65624 26.25H9.84374V28.4375H7.65624V26.25Z" fill="#02539C"/>
</svg>
