<svg width="32" height="29" viewBox="0 0 32 29" fill="none" xmlns="http://www.w3.org/2000/svg">
<g clip-path="url(#clip0_84_164)">
<path d="M9.16799 4.57617L10.3907 15.8233C10.4187 16.071 10.6467 16.2595 10.9213 16.2595H20.7C20.9747 16.2595 21.204 16.071 21.2307 15.8233L22.4293 4.67404C22.4493 4.61483 22.6173 4.08075 22.1427 3.49471C21.34 2.50388 19.2107 2 15.8093 2C12.408 2 10.28 2.50388 9.47732 3.49471C9.01999 4.06021 9.15866 4.57858 9.16799 4.57858V4.57617ZM10.368 4.03121C10.6573 3.711 11.764 2.96788 15.8107 2.96788C19.856 2.96788 20.964 3.711 21.252 4.03C21.4373 4.23542 21.4093 4.38767 21.3907 4.48192L20.2173 15.2917H11.4053L10.2147 4.40458C10.2107 4.38888 10.184 4.23662 10.368 4.03121Z" fill="black"/>
<path d="M21.8893 17.7083H9.73201C7.90668 17.7083 6.96268 20.6035 6.79201 21.1823C6.78001 21.2234 6.77335 21.2644 6.77335 21.3079C6.77335 22.1634 7.55335 22.8594 8.51068 22.8594H15.2773V26.3769C12.2053 26.4651 9.11468 27.3846 9.11468 29.0219C9.11468 29.289 9.35468 29.5053 9.64801 29.5053H21.8707C21.8787 29.5053 21.8907 29.5053 21.8973 29.5053C22.1933 29.5053 22.4307 29.2878 22.4307 29.0219C22.4307 28.9567 22.416 28.8951 22.3907 28.8383C22.172 27.3327 19.2653 26.4893 16.3453 26.389V22.8594H23.1107C24.0693 22.8594 24.8493 22.1634 24.8373 21.2101C24.756 20.8512 23.9773 17.7083 21.8893 17.7083ZM10.4853 28.5386C11.1933 27.9453 13.1013 27.3363 15.7613 27.3363C18.4187 27.3363 20.3267 27.9453 21.0347 28.5386H10.4853ZM23.1107 21.8916H8.51068C8.16268 21.8916 7.87468 21.6596 7.84401 21.3623C8.18668 20.2531 9.00001 18.675 9.73201 18.675H21.8893C22.8533 18.675 23.5867 20.5129 23.7813 21.3067C23.7813 21.6294 23.48 21.8916 23.1107 21.8916Z" fill="black"/>
<path d="M25.144 9.25C24.8493 9.25 24.6107 9.4675 24.6107 9.73333V15.7424C24.6107 16.0094 24.8507 16.2257 25.144 16.2257C25.4373 16.2257 25.6773 16.0082 25.6773 15.7424V9.73454C25.6787 9.4675 25.4387 9.25 25.144 9.25Z" fill="black"/>
<path d="M7.06667 15.7424V9.73455C7.06667 9.46751 6.82667 9.25122 6.53333 9.25122C6.24 9.25122 6 9.46872 6 9.73455V15.7436C6 16.0106 6.24 16.2269 6.53333 16.2269C6.82667 16.2269 7.06667 16.0094 7.06667 15.7424Z" fill="black"/>
</g>
<defs>
<clipPath id="clip0_84_164">
<rect width="32" height="29" fill="white"/>
</clipPath>
</defs>
</svg>
