<svg width="35" height="35" viewBox="0 0 35 35" fill="none" xmlns="http://www.w3.org/2000/svg">
<g clip-path="url(#clip0_98_38)">
<path d="M14.1604 16.4645C13.8858 16.1899 13.5133 16.0356 13.1249 16.0356C12.7366 16.0356 12.3641 16.1899 12.0895 16.4645C11.8149 16.7391 11.6606 17.1115 11.6606 17.4999C11.6606 17.8882 11.8149 18.2607 12.0895 18.5353L16.4645 22.9103C16.6008 23.0455 16.7624 23.1524 16.9401 23.225C17.1178 23.2975 17.308 23.3343 17.4999 23.3332C17.6996 23.3269 17.8958 23.2796 18.0764 23.1943C18.257 23.109 18.4182 22.9875 18.5499 22.8374L28.7583 11.1707C28.994 10.8781 29.1076 10.5057 29.0755 10.1313C29.0434 9.75695 28.868 9.40939 28.5859 9.16115C28.3039 8.91291 27.9368 8.78314 27.5614 8.79889C27.1859 8.81465 26.8311 8.97472 26.5708 9.24572L17.4999 19.7457L14.1604 16.4645Z" fill="#02539C"/>
<path d="M30.625 16.0417C30.2382 16.0417 29.8673 16.1954 29.5938 16.4689C29.3203 16.7424 29.1667 17.1133 29.1667 17.5001C29.1667 20.5943 27.9375 23.5617 25.7496 25.7497C23.5617 27.9376 20.5942 29.1667 17.5 29.1667C15.196 29.1657 12.9438 28.4824 11.0276 27.2032C9.11133 25.9239 7.61678 24.1058 6.73238 21.9783C5.84798 19.8507 5.61335 17.509 6.05806 15.2483C6.50277 12.9875 7.60691 10.9091 9.23126 9.27508C10.3115 8.18043 11.5991 7.31223 13.0189 6.72127C14.4387 6.13031 15.9621 5.82847 17.5 5.83341C18.4325 5.83925 19.3617 5.94683 20.2708 6.15425C20.4611 6.2131 20.6614 6.23236 20.8594 6.21083C21.0574 6.1893 21.2489 6.12745 21.422 6.02909C21.5952 5.93073 21.7464 5.79794 21.8663 5.63891C21.9862 5.47987 22.0722 5.29797 22.1191 5.10441C22.166 4.91086 22.1728 4.70974 22.139 4.51348C22.1051 4.31721 22.0315 4.12995 21.9225 3.96324C21.8136 3.79652 21.6716 3.65389 21.5055 3.54414C21.3393 3.43439 21.1524 3.35983 20.9563 3.32508C19.8234 3.05856 18.6638 2.92157 17.5 2.91675C14.6188 2.93172 11.8067 3.7998 9.41836 5.41145C7.03006 7.0231 5.17268 9.30609 4.0806 11.9723C2.98853 14.6385 2.7107 17.5685 3.28219 20.3925C3.85367 23.2164 5.24886 25.8078 7.29168 27.8397C9.99935 30.5486 13.6699 32.0745 17.5 32.0834C21.3678 32.0834 25.0771 30.547 27.812 27.8121C30.5469 25.0771 32.0833 21.3678 32.0833 17.5001C32.0833 17.1133 31.9297 16.7424 31.6562 16.4689C31.3827 16.1954 31.0118 16.0417 30.625 16.0417Z" fill="#02539C"/>
</g>
<defs>
<clipPath id="clip0_98_38">
<rect width="35" height="35" fill="white"/>
</clipPath>
</defs>
</svg>
