<svg width="35" height="35" viewBox="0 0 35 35" fill="none" xmlns="http://www.w3.org/2000/svg">
<g clip-path="url(#clip0_98_67)">
<path d="M17.5 31.7188C14.6878 31.7188 11.9388 30.8848 9.60049 29.3225C7.26223 27.7601 5.43978 25.5394 4.36359 22.9413C3.28741 20.3431 3.00583 17.4842 3.55447 14.7261C4.1031 11.9679 5.4573 9.43436 7.44583 7.44583C9.43436 5.4573 11.9679 4.1031 14.7261 3.55447C17.4842 3.00583 20.3431 3.28741 22.9413 4.36359C25.5394 5.43978 27.7601 7.26223 29.3225 9.60049C30.8848 11.9388 31.7188 14.6878 31.7188 17.5C31.7188 21.2711 30.2207 24.8876 27.5542 27.5542C24.8876 30.2207 21.2711 31.7188 17.5 31.7188ZM17.5 5.46876C15.1205 5.46876 12.7943 6.17438 10.8158 7.49639C8.83727 8.8184 7.2952 10.6974 6.38458 12.8958C5.47396 15.0943 5.2357 17.5134 5.69993 19.8472C6.16416 22.181 7.31003 24.3248 8.99263 26.0074C10.6752 27.69 12.819 28.8358 15.1528 29.3001C17.4867 29.7643 19.9057 29.526 22.1042 28.6154C24.3026 27.7048 26.1816 26.1627 27.5036 24.1842C28.8256 22.2057 29.5313 19.8796 29.5313 17.5C29.5313 14.3091 28.2637 11.2489 26.0074 8.99263C23.7511 6.73633 20.6909 5.46876 17.5 5.46876Z" fill="#02539C"/>
<path d="M23.5156 24.6094C23.3717 24.6102 23.229 24.5826 23.0957 24.5282C22.9625 24.4738 22.8413 24.3936 22.7391 24.2922L16.7235 18.2766C16.6221 18.1744 16.5419 18.0532 16.4875 17.9199C16.433 17.7866 16.4054 17.6439 16.4063 17.5V8.75C16.4063 8.45992 16.5215 8.18172 16.7266 7.9766C16.9317 7.77148 17.2099 7.65625 17.5 7.65625C17.7901 7.65625 18.0683 7.77148 18.2734 7.9766C18.4785 8.18172 18.5938 8.45992 18.5938 8.75V17.0516L24.2922 22.7391C24.3947 22.8407 24.4761 22.9617 24.5316 23.095C24.5871 23.2283 24.6157 23.3712 24.6157 23.5156C24.6157 23.66 24.5871 23.803 24.5316 23.9363C24.4761 24.0695 24.3947 24.1905 24.2922 24.2922C24.19 24.3936 24.0688 24.4738 23.9355 24.5282C23.8023 24.5826 23.6596 24.6102 23.5156 24.6094Z" fill="#02539C"/>
</g>
<defs>
<clipPath id="clip0_98_67">
<rect width="35" height="35" fill="white"/>
</clipPath>
</defs>
</svg>
