<svg width="55" height="55" viewBox="0 0 55 55" fill="none" xmlns="http://www.w3.org/2000/svg">
<path d="M28.6816 5.15625L28.1445 5.63965L16.4893 17.1875H10.3125H8.59375V18.9062V42.9688V44.6875H10.3125H37.5439C39.9655 44.6875 42.0845 42.9724 42.5928 40.6055L46.2988 23.418C46.9793 20.2451 44.4956 17.1875 41.25 17.1875H31.3672L31.6895 15.8984C32.0386 15.6298 32.2592 15.5135 32.7637 14.8242C33.5708 13.7214 34.375 12.0184 34.375 9.72168C34.3777 7.27036 32.1577 5.15625 29.3799 5.15625H28.6816ZM29.917 8.75488C30.6411 8.89532 30.9381 9.19296 30.9375 9.72168C30.9375 11.2733 30.4686 12.23 30.0244 12.8369C29.5803 13.4438 29.2725 13.5889 29.2725 13.5889L28.6816 13.9111L28.4668 14.6094L27.4463 18.4766L26.9092 20.625H29.1113H41.25C42.3838 20.625 43.1524 21.6129 42.915 22.7197L39.2627 39.9072C39.0904 40.7097 38.364 41.25 37.5439 41.25H18.9063V19.6045L29.917 8.75488ZM12.0313 20.625H15.4688V41.25H12.0313V20.625Z" fill="black"/>
</svg>
