<svg width="55" height="55" viewBox="0 0 55 55" fill="none" xmlns="http://www.w3.org/2000/svg">
<g clip-path="url(#clip0_189_52)">
<path d="M53.2794 27.4991C53.2794 20.3803 50.3933 13.9349 45.7291 9.26899C41.0633 4.60493 34.6178 1.71878 27.4991 1.71878C20.3804 1.71878 13.9349 4.60493 9.27079 9.26899C4.60493 13.9349 1.71878 20.3803 1.71878 27.4991C1.71878 34.6179 4.60493 41.0651 9.26899 45.7291C13.9331 50.3931 20.3804 53.2793 27.4973 53.2793C34.616 53.2793 41.0615 50.3933 45.7274 45.7291C50.3933 41.0651 53.2794 34.6196 53.2794 27.4991ZM46.9449 8.05508C51.9205 13.0306 55 19.9059 55 27.5009C55 35.0941 51.9223 41.9693 46.9449 46.9467C41.9675 51.9222 35.0923 55 27.4991 55C19.9059 55 13.0307 51.9223 8.05328 46.9449C3.07954 41.9693 0 35.0941 0 27.4991C0 19.9059 3.07774 13.0306 8.05508 8.05328C13.0289 3.07954 19.9041 0 27.4991 0C35.0923 0 41.9675 3.07774 46.9449 8.05508Z" fill="black"/>
<path d="M26.6415 39.5325C27.1159 39.5325 27.5009 39.9173 27.5009 40.3918C27.5009 40.8662 27.1159 41.2512 26.6415 41.2512H19.7663C19.2919 41.2512 18.9069 40.8663 18.9069 40.3918C18.9069 39.9173 19.2919 39.5325 19.7663 39.5325H26.6415Z" fill="black"/>
<path d="M30.0791 30.9402C29.6047 30.9402 29.2198 30.5553 29.2198 30.0809C29.2198 29.6064 29.6046 29.2215 30.0791 29.2215C31.7388 29.2215 33.2446 28.5484 34.3332 27.4598L34.3815 27.4151C35.4396 26.3336 36.0967 24.8476 36.0967 23.2076C36.0967 21.5461 35.4217 20.0404 34.3332 18.9536L34.2884 18.9053C33.2052 17.8436 31.7191 17.1883 30.0791 17.1883H19.7663C19.2919 17.1883 18.9069 16.8033 18.9069 16.3289C18.9069 15.8544 19.2919 15.4695 19.7663 15.4695H30.0791C32.1828 15.4695 34.0968 16.3146 35.4933 17.686L35.5488 17.7362C36.9472 19.1345 37.8155 21.07 37.8155 23.2059C37.8155 25.3097 36.9705 27.2218 35.6007 28.6184L35.5505 28.6738C34.1506 30.0737 32.2151 30.9402 30.0791 30.9402Z" fill="black"/>
<path d="M19.7645 30.9404C19.2901 30.9404 18.9051 30.5555 18.9051 30.081C18.9051 29.6066 19.2901 29.2217 19.7645 29.2217H30.0756C30.55 29.2217 30.935 29.6066 30.935 30.081C30.935 30.5554 30.5501 30.9404 30.0756 30.9404H19.7645Z" fill="black"/>
<path d="M24.0615 40.392C24.0615 40.8664 23.6765 41.2514 23.2021 41.2514C22.7276 41.2514 22.3427 40.8665 22.3427 40.392V16.3305C22.3427 15.856 22.7277 15.4712 23.2021 15.4712C23.6765 15.4712 24.0615 15.8562 24.0615 16.3305V40.392Z" fill="black"/>
<path d="M19.7645 34.3779C19.2901 34.3779 18.9051 33.9929 18.9051 33.5186C18.9051 33.0442 19.2901 32.6592 19.7645 32.6592H31.7979C32.2723 32.6592 32.6573 33.0442 32.6573 33.5186C32.6573 33.9929 32.2724 34.3779 31.7979 34.3779H19.7645Z" fill="black"/>
</g>
<defs>
<clipPath id="clip0_189_52">
<rect width="55" height="55" fill="white"/>
</clipPath>
</defs>
</svg>
