<svg width="55" height="55" viewBox="0 0 55 55" fill="none" xmlns="http://www.w3.org/2000/svg">
<g clip-path="url(#clip0_189_16)">
<path d="M16.1133 20.3027C15.5203 20.3027 15.0391 20.784 15.0391 21.377C15.0391 21.9699 15.5203 22.4512 16.1133 22.4512C16.7062 22.4512 17.1875 21.9699 17.1875 21.377C17.1875 20.784 16.7062 20.3027 16.1133 20.3027Z" fill="black"/>
<path d="M53.9258 46.4062H50.0586V5.37109C50.0586 2.40947 47.6491 0 44.6875 0H5.37109C2.40947 0 0 2.40947 0 5.37109V9.66797C0 10.2612 0.481035 10.7422 1.07422 10.7422H8.59375V49.6289C8.59375 52.5905 11.0032 55 13.9648 55H49.6289C52.5905 55 55 52.5905 55 49.6289V47.4805C55 46.8873 54.519 46.4062 53.9258 46.4062ZM8.59375 8.59375H2.14844V5.37109C2.14844 3.59412 3.59412 2.14844 5.37109 2.14844C6.23133 2.14844 7.04043 2.48381 7.6494 3.09268C8.25838 3.70176 8.59375 4.51086 8.59375 5.37109V8.59375ZM17.1875 47.4805V49.6289C17.1875 51.4059 15.7418 52.8516 13.9648 52.8516C12.1879 52.8516 10.7422 51.4059 10.7422 49.6289V9.66797V5.37109C10.7422 4.19332 10.3645 3.07345 9.66743 2.14844H44.6875C46.4645 2.14844 47.9102 3.59412 47.9102 5.37109V46.4062H43.6133V42.6128C44.984 41.3913 45.7617 39.6719 45.7617 37.8125C45.7617 34.2586 42.8704 31.3672 39.3164 31.3672C37.4119 31.3672 35.6985 32.1981 34.5175 33.5156H16.1133C15.5201 33.5156 15.0391 33.9967 15.0391 34.5898C15.0391 35.183 15.5201 35.6641 16.1133 35.6641H33.2406C33.0021 36.3365 32.8711 37.0594 32.8711 37.8125C32.8711 38.5589 32.9974 39.2825 33.2358 39.9609H16.1133C15.5201 39.9609 15.0391 40.442 15.0391 41.0352C15.0391 41.6283 15.5201 42.1094 16.1133 42.1094H33.9453C34.1143 42.1094 34.2736 42.0692 34.4158 41.9997C34.6017 42.2157 34.8034 42.4201 35.0195 42.6128V46.4062H18.2617C17.6685 46.4062 17.1875 46.8873 17.1875 47.4805ZM39.3164 42.1094C38.3788 42.1094 37.4886 41.8127 36.7417 41.2515C36.7405 41.2505 36.7394 41.2497 36.7381 41.2488C35.6459 40.4287 35.0195 39.1763 35.0195 37.8125C35.0195 35.4432 36.9471 33.5156 39.3164 33.5156C41.6857 33.5156 43.6133 35.4432 43.6133 37.8125C43.6133 39.1765 42.9867 40.4291 41.8932 41.2499C41.1459 41.8121 40.2548 42.1094 39.3164 42.1094ZM41.4648 43.8909V48.8226L39.9123 47.7876C39.5514 47.547 39.0815 47.547 38.7205 47.7876L37.168 48.8226V43.8908C37.8505 44.1322 38.5735 44.2578 39.3164 44.2578C40.0594 44.2578 40.7824 44.1323 41.4648 43.8909ZM52.8516 49.6289C52.8516 51.4059 51.4059 52.8516 49.6289 52.8516H18.2588C18.9347 51.9532 19.3359 50.8372 19.3359 49.6289V48.5547H35.0195V50.8299C35.0195 51.2261 35.2376 51.59 35.5868 51.7769C35.9363 51.964 36.36 51.9433 36.6896 51.7236L39.3164 49.9724L41.9432 51.7236C42.1229 51.8435 42.3307 51.9041 42.5392 51.9041C42.7129 51.9041 42.8871 51.862 43.046 51.7769C43.3952 51.59 43.6133 51.2259 43.6133 50.8299V48.5547H52.8516V49.6289Z" fill="black"/>
<path d="M33.9453 6.44531H22.5586C21.9654 6.44531 21.4844 6.92635 21.4844 7.51953C21.4844 8.11271 21.9654 8.59375 22.5586 8.59375H33.9453C34.5385 8.59375 35.0195 8.11271 35.0195 7.51953C35.0195 6.92635 34.5385 6.44531 33.9453 6.44531Z" fill="black"/>
<path d="M42.5391 20.3027H20.4102C19.817 20.3027 19.3359 20.7838 19.3359 21.377C19.3359 21.9701 19.817 22.4512 20.4102 22.4512H42.5391C43.1322 22.4512 43.6133 21.9701 43.6133 21.377C43.6133 20.7838 43.1322 20.3027 42.5391 20.3027Z" fill="black"/>
<path d="M42.5391 27.0703H16.1133C15.5201 27.0703 15.0391 27.5513 15.0391 28.1445C15.0391 28.7377 15.5201 29.2188 16.1133 29.2188H42.5391C43.1322 29.2188 43.6133 28.7377 43.6133 28.1445C43.6133 27.5513 43.1322 27.0703 42.5391 27.0703Z" fill="black"/>
<path d="M42.5391 13.2129H16.1133C15.5201 13.2129 15.0391 13.6939 15.0391 14.2871C15.0391 14.8803 15.5201 15.3613 16.1133 15.3613H42.5391C43.1322 15.3613 43.6133 14.8803 43.6133 14.2871C43.6133 13.6939 43.1322 13.2129 42.5391 13.2129Z" fill="black"/>
</g>
<defs>
<clipPath id="clip0_189_16">
<rect width="55" height="55" fill="white"/>
</clipPath>
</defs>
</svg>
