<svg width="55" height="55" viewBox="0 0 55 55" fill="none" xmlns="http://www.w3.org/2000/svg">
<path d="M48.2308 53.1384H38.0769C37.7385 53.1384 37.4 53.3923 37.4 53.8154C37.4 54.2384 37.6538 54.4923 38.0769 54.4923H48.2308C48.5692 54.4923 48.9077 54.2384 48.9077 53.8154C48.9077 53.3923 48.5692 53.1384 48.2308 53.1384Z" fill="#1C1F20"/>
<path d="M52.4615 53.1384H50.7692C50.4308 53.1384 50.0923 53.3923 50.0923 53.8154C50.0923 54.2384 50.3462 54.4923 50.7692 54.4923H52.4615C52.8 54.4923 53.1385 54.2384 53.1385 53.8154C53.1385 53.3923 52.8 53.1384 52.4615 53.1384Z" fill="#1C1F20"/>
<path d="M3.38462 12.1C3.72308 12.1 4.06154 11.8462 4.06154 11.4231V4.65385C4.06154 4.31539 3.8077 3.97693 3.38462 3.97693C2.96154 3.97693 2.79231 4.31539 2.79231 4.65385V11.4231C2.79231 11.7615 3.04616 12.1 3.38462 12.1Z" fill="#1C1F20"/>
<path d="M3.38462 2.79228C3.72308 2.79228 4.06154 2.53844 4.06154 2.11536V1.26921C4.06154 0.930747 3.8077 0.592285 3.38462 0.592285C2.96154 0.592285 2.79231 0.930747 2.79231 1.26921V2.11536C2.79231 2.45382 3.04616 2.79228 3.38462 2.79228Z" fill="#1C1F20"/>
<path d="M5.92308 32.4077C6.26154 32.4077 6.6 32.1539 6.6 31.7308C6.6 31.3077 6.26154 31.1385 5.92308 31.1385H4.9077V30.0385C4.9077 29.7 4.65385 29.3616 4.23077 29.3616C3.8077 29.3616 3.55385 29.6154 3.55385 30.0385V31.1385H2.53846C2.2 31.1385 1.86154 31.3923 1.86154 31.8154C1.86154 32.2385 2.11539 32.4923 2.53846 32.4923H3.63846V33.5923C3.63846 33.9308 3.89231 34.2693 4.31539 34.2693C4.73846 34.2693 4.99231 34.0154 4.99231 33.5923V32.4923H5.92308V32.4077Z" fill="#1C1F20"/>
<path d="M49.1615 4.06147H48.0615V2.96147C48.0615 2.62301 47.8077 2.28455 47.3846 2.28455C46.9615 2.28455 46.7077 2.53839 46.7077 2.96147V4.06147H45.6077C45.2692 4.06147 44.9308 4.31532 44.9308 4.73839C44.9308 5.16147 45.1846 5.41532 45.6077 5.41532H46.7077V6.51532C46.7077 6.85378 46.9615 7.19224 47.3846 7.19224C47.8077 7.19224 48.0615 6.93839 48.0615 6.51532V5.3307H49.1615C49.5 5.3307 49.8385 5.07685 49.8385 4.65378C49.8385 4.2307 49.5 4.06147 49.1615 4.06147Z" fill="#1C1F20"/>
<path d="M35.7923 38.5846C39.8539 38.5846 43.1539 35.2846 43.1539 31.1385C43.1539 29.5308 43.8308 27.9231 44.9308 26.8231C47.8077 23.9462 47.8077 19.2077 44.9308 16.3308C43.7462 15.1462 43.1539 13.6231 43.1539 12.0154C43.1539 7.95387 39.8539 4.56926 35.7077 4.56926C34.1 4.56926 32.4923 3.89234 31.3923 2.79234C28.5154 -0.0845871 23.7769 -0.0845871 20.9 2.79234C19.7154 3.97695 18.1923 4.56926 16.5846 4.56926C12.5231 4.56926 9.13847 7.86926 9.13847 12.0154C9.13847 13.6231 8.46154 15.2308 7.36154 16.3308C5.92308 17.7693 5.16154 19.5462 5.16154 21.577C5.16154 23.5231 5.92308 25.3846 7.36154 26.8231C8.54616 28.0077 9.13847 29.5308 9.13847 31.1385C9.13847 35.2 12.4385 38.5846 16.5846 38.5846C18.1923 38.5846 19.8 39.2616 20.9 40.3616C22.3385 41.8 24.2 42.5616 26.1462 42.5616C28.0077 42.5616 29.9539 41.8 31.3923 40.3616C32.6615 39.177 34.1846 38.5846 35.7923 38.5846ZM21.9154 39.4308C20.4769 37.9923 18.6154 37.2308 16.6692 37.2308C13.2846 37.2308 10.4923 34.4385 10.4923 31.0539C10.4923 29.1077 9.73078 27.2462 8.29231 25.8077C7.1077 24.6231 6.51539 23.1 6.51539 21.4923C6.51539 19.8846 7.19231 18.277 8.29231 17.177C9.73078 15.7385 10.4923 13.877 10.4923 11.9308C10.4923 8.54618 13.2846 5.75387 16.6692 5.75387C18.6154 5.75387 20.4769 4.99234 21.9154 3.55387C23.1 2.53849 24.6231 1.94618 26.2308 1.94618C27.8385 1.94618 29.3615 2.53849 30.5462 3.72311C31.9846 5.07695 33.8462 5.83849 35.7923 5.83849C39.1769 5.83849 41.8846 8.6308 41.8846 12.0154C41.8846 13.9616 42.6462 15.8231 44.0846 17.2616C46.4539 19.6308 46.4539 23.5231 44.0846 25.977C42.6462 27.4154 41.8846 29.277 41.8846 31.2231C41.8846 34.6077 39.0923 37.4 35.7077 37.4C33.7615 37.4 31.9 38.1616 30.4615 39.6C28.1769 41.8846 24.2846 41.8846 21.9154 39.4308Z" fill="#1C1F20"/>
<path d="M41.2077 21.5769C41.2077 21.2384 40.9539 20.9 40.5308 20.9C40.1923 20.9 39.8539 21.1538 39.8539 21.5769C39.8539 29.1077 33.6769 35.2846 26.0615 35.3692C18.5308 35.3692 12.3539 29.1923 12.2692 21.5769C12.2692 19.4615 12.6923 17.5154 13.6231 15.6538C16.0769 10.9154 20.9846 7.86921 26.2308 7.86921C31.9846 7.86921 37.2308 11.5077 39.1769 17.0077C39.2615 17.3461 39.6846 17.5154 40.0231 17.4307C40.1923 17.3461 40.2769 17.2615 40.3615 17.0923C40.4462 16.9231 40.4462 16.7538 40.3615 16.5846C38.2462 10.6615 32.5769 6.59998 26.2308 6.59998C23.3539 6.59998 20.5615 7.44613 18.1077 8.96921C15.7385 10.4923 13.8769 12.6077 12.6923 15.1461C11.7615 17.1769 11.2539 19.3769 11.2539 21.6615C11.2539 29.9538 18.0231 36.7231 26.3154 36.7231C34.6077 36.7231 41.2077 29.8692 41.2077 21.5769Z" fill="#1C1F20"/>
<path d="M39.8538 18.7847C39.7692 18.9539 39.7692 19.1231 39.7692 19.2923C39.8538 19.6308 40.1077 19.8 40.3615 19.8H40.4462C40.6154 19.8 40.7846 19.7154 40.8692 19.5462C40.9538 19.377 41.0385 19.2077 40.9539 19.0385C40.8692 18.7 40.5308 18.4462 40.1923 18.5308C40.1077 18.6154 40.0231 18.7 39.8538 18.7847Z" fill="#1C1F20"/>
<path d="M36.4692 18.2769C36.3846 18.0231 36.2154 17.8539 35.9615 17.8539L29.6154 16.9231L26.8231 11.1692C26.5692 10.7462 25.8923 10.7462 25.7231 11.1692L22.8462 16.9231L16.5846 17.8539C16.3308 17.8539 16.1615 18.0231 16.0769 18.2769C15.9923 18.5308 16.0769 18.7846 16.2462 18.9539L20.8154 23.4385L19.6308 29.6154C19.6308 29.8692 19.7154 30.1231 19.8846 30.2077C20.0538 30.3769 20.3077 30.3769 20.5615 30.2923L26.2308 27.3308L31.9 30.2923C31.9846 30.3769 32.0692 30.3769 32.1538 30.3769C32.3231 30.3769 32.4077 30.3769 32.4923 30.2923C32.6615 30.1231 32.7462 29.8692 32.7462 29.7L31.6462 23.4385L36.2154 18.9539C36.4692 18.7846 36.4692 18.5308 36.4692 18.2769ZM30.5462 22.6769C30.3769 22.8462 30.2923 23.0154 30.3769 23.2692L31.3077 28.6L26.4846 26.0615C26.4 25.9769 26.3154 25.9769 26.2308 25.9769C26.1462 25.9769 26.0615 25.9769 25.9769 26.0615L21.1538 28.6L22.0846 23.2692C22.0846 23.1 22.0846 22.8462 21.9154 22.6769L18.0231 18.8692L23.3539 18.1077C23.5231 18.1077 23.7769 17.9385 23.8615 17.7692L26.2308 12.9462L28.6 17.7692C28.6846 17.9385 28.8539 18.1077 29.1077 18.1077L34.4385 18.8692L30.5462 22.6769Z" fill="#1C1F20"/>
<path d="M22 43.6616C21.6615 43.4923 21.3231 43.6616 21.1538 44L17.3461 52.1231L14.9769 45.5231C14.8923 45.3539 14.8077 45.2693 14.6385 45.1846C14.4692 45.1 14.3 45.1 14.1308 45.1846L7.53077 47.5539L11.1692 39.6846C11.3385 39.3462 11.1692 39.0077 10.8308 38.8385C10.4923 38.6693 10.1538 38.8385 9.98461 39.1769L5.66923 48.4846C5.58461 48.7385 5.58461 48.9923 5.75384 49.1616C5.92307 49.3308 6.17692 49.4154 6.43077 49.3308L13.8769 46.6231L16.5846 54.0693C16.6692 54.3231 16.9231 54.4923 17.1769 54.4923C17.4308 54.4923 17.6846 54.3231 17.7692 54.1539L22.1692 44.6769C22.5077 44.1693 22.3385 43.8308 22 43.6616Z" fill="#1C1F20"/>
<path d="M45.3539 49.0769C45.5231 48.9077 45.6077 48.6539 45.4385 48.4L41.3769 39.7693C41.2077 39.4308 40.8692 39.3462 40.5308 39.4308C40.1923 39.6 40.1077 39.9385 40.1923 40.2769L43.5769 47.5539L36.9769 45.1846C36.8077 45.1 36.6385 45.1 36.4692 45.1846C36.3 45.2693 36.2154 45.3539 36.1308 45.5231L33.8462 52.0385L30.2923 44.3385C30.1231 44 29.7846 43.9154 29.4462 44C29.1077 44.1693 29.0231 44.5077 29.1077 44.8462L33.3385 53.9C33.4231 54.1539 33.6769 54.2385 33.9308 54.2385C34.1846 54.2385 34.4385 54.0692 34.5231 53.8154L37.2308 46.3692L44.6769 49.0769C44.9308 49.3308 45.1846 49.2462 45.3539 49.0769Z" fill="#1C1F20"/>
</svg>
