<svg width="137" height="114" viewBox="0 0 137 114" fill="none" xmlns="http://www.w3.org/2000/svg">
<path d="M86.8787 1.95786L79.1823 8.41595L123.409 61.1238L131.106 54.6657L86.8787 1.95786Z" fill="#DA2100" stroke="#02539C" stroke-width="0.5"/>
<path d="M81.9186 103.587L89.9425 109.633L131.351 54.6827L123.327 48.6363L81.9186 103.587Z" fill="#DA2100" stroke="#02539C" stroke-width="0.5"/>
<path d="M85.75 31.25H6.25V88.75H85.75V31.25Z" fill="#DA2100" stroke="#02539C" stroke-width="0.5"/>
<path d="M21.5 34.5H41C41.8284 34.5 42.5 35.1716 42.5 36V40C42.5 40.8284 41.8284 41.5 41 41.5H21.5V34.5Z" fill="white" stroke="#02539C"/>
<path d="M21.5 78.5H41C41.8284 78.5 42.5 79.1716 42.5 80V84C42.5 84.8284 41.8284 85.5 41 85.5H21.5V78.5Z" fill="white" stroke="#02539C"/>
<path d="M33.5 41.5H21.5V78.5H33.5V41.5Z" fill="white" stroke="#02539C"/>
<path d="M36.5 43.5H50C50.8284 43.5 51.5 44.1716 51.5 45V75C51.5 75.8284 50.8284 76.5 50 76.5H36.5V43.5Z" fill="white" stroke="#02539C"/>
<path d="M21.5 74.5H13.5V78.5H21.5V74.5Z" fill="white"/>
<path d="M21.5 74.5H13.5V78.5H21.5V74.5Z" fill="white"/>
<path d="M21.5 74.5H13.5V78.5H21.5V74.5Z" fill="white"/>
<path d="M21.5 74.5H13.5V78.5H21.5V74.5Z" stroke="#02539C"/>
<path d="M21.5 41.5H13.5V45.5H21.5V41.5Z" fill="white"/>
<path d="M21.5 41.5H13.5V45.5H21.5V41.5Z" fill="white"/>
<path d="M21.5 41.5H13.5V45.5H21.5V41.5Z" fill="white"/>
<path d="M21.5 41.5H13.5V45.5H21.5V41.5Z" stroke="#02539C"/>
</svg>
