<svg width="35" height="35" viewBox="0 0 35 35" fill="none" xmlns="http://www.w3.org/2000/svg">
<path d="M12.1679 21.2663L11.506 20.8927L14.3475 17.9267L15.0036 18.3039L12.1679 21.2663ZM18.6507 17.6491L11.9492 24.63L12.6018 24.9988L19.2998 18.0253L18.6507 17.6491ZM34.1318 12.0252L34.1753 12.03L24.4154 32.7006L0 32.7556L8.7456 14.0419C6.51233 13.6921 5.37084 11.0615 5.33651 8.17077C5.37392 5.15597 6.60122 2.39332 9.03251 2.24414L31.2719 2.24854C31.2811 2.24854 31.2877 2.24414 31.2948 2.24414C33.7309 2.39332 34.9542 5.15597 35 8.17297C34.9793 9.60093 34.6854 10.9611 34.1318 12.0252ZM31.2948 3.80281C30.889 3.79356 30.3698 4.117 29.9051 4.91834C29.4628 5.70691 29.1508 6.87349 29.1508 8.17561C29.1508 9.47552 29.4628 10.6513 29.9051 11.4285C30.3654 12.2364 30.889 12.5532 31.2948 12.5462C31.6983 12.5554 32.2246 12.2364 32.6871 11.4285C33.1315 10.6513 33.4435 9.47552 33.4369 8.17561C33.4435 6.87349 33.1315 5.70691 32.6871 4.91834C32.229 4.117 31.6983 3.79356 31.2948 3.80281ZM9.03251 12.5414H28.7768C28.0203 11.4236 27.6168 9.84824 27.5939 8.1734C27.6168 6.49637 28.0203 4.91614 28.7785 3.80281H9.03251C8.63163 3.79356 8.1062 4.117 7.64591 4.91834C7.19353 5.70427 6.88814 6.87129 6.88814 8.1734C6.88814 9.47332 7.19353 10.6491 7.64591 11.4263C8.1062 12.2316 8.63163 12.5506 9.03251 12.5414ZM31.4224 14.0758C31.3766 14.0815 31.3401 14.1 31.2948 14.1022H10.3509L2.79037 31.1877L23.5564 31.1463L31.4224 14.0758ZM15.0731 25.3112L15.7319 25.6892L20.2666 20.9745L19.6105 20.6009L15.0731 25.3112Z" fill="#02539C"/>
</svg>
