<svg width="33" height="28" viewBox="0 0 33 28" fill="none" xmlns="http://www.w3.org/2000/svg">
<path d="M30.5269 21.1826C28.2906 21.1826 26.0611 21.1826 23.8248 21.1826C19.5264 21.1826 15.2279 21.1826 10.9295 21.1826C8.17095 21.1826 5.41245 21.1826 2.66063 21.1826C2.01118 21.1826 1.47555 20.9678 1.16086 20.4454C1.02695 20.2189 1.03365 19.9635 1.03365 19.7139C1.03365 19.412 1.03365 19.1159 1.03365 18.814C1.03365 17.2524 1.03365 15.6965 1.03365 14.1348C1.03365 13.4033 1.65632 12.8112 2.52003 12.8112C2.76776 12.8112 3.00879 12.8112 3.25652 12.8112C4.54204 12.8112 5.82756 12.8112 7.11308 12.8112C11.2977 12.8112 15.4823 12.8112 19.667 12.8112C22.9946 12.8112 26.3222 12.8112 29.6498 12.8112C29.9243 12.8112 30.1988 12.8112 30.4734 12.8112C31.3036 12.8112 31.9865 13.3511 31.9865 14.0826C31.9865 15.5746 31.9865 17.0724 31.9865 18.5644C31.9865 18.994 31.9865 19.4236 31.9865 19.8474C31.9798 20.5847 31.3772 21.1652 30.5269 21.1826C29.8775 21.1943 29.8775 22.0651 30.5269 22.0535C31.9196 22.0244 32.9841 21.0665 32.9841 19.859C32.9841 19.2204 32.9841 18.5818 32.9841 17.9374C32.9841 17.0201 32.9841 16.0971 32.9841 15.1798C32.9841 14.6109 33.0645 13.9723 32.8636 13.4208C32.5422 12.5151 31.5312 11.9404 30.46 11.9404C30.1854 11.9404 29.9109 11.9404 29.6364 11.9404C28.304 11.9404 26.9717 11.9404 25.646 11.9404C21.4412 11.9404 17.2365 11.9404 13.0251 11.9404C9.76446 11.9404 6.5038 11.9404 3.24313 11.9404C2.9954 11.9404 2.75437 11.9404 2.50664 11.9404C1.2546 11.9404 0.183333 12.7531 0.0360343 13.8388C-0.0309198 14.3554 0.0159481 14.9011 0.0159481 15.4236C0.0159481 16.3525 0.0159481 17.2814 0.0159481 18.2103C0.0159481 18.7734 0.0159481 19.3423 0.0159481 19.9054C0.0159481 21.0723 1.12739 22.0477 2.47986 22.0477C3.16948 22.0477 3.86581 22.0477 4.55543 22.0477C8.32495 22.0477 12.0878 22.0477 15.8573 22.0477C19.7942 22.0477 23.7378 22.0477 27.6747 22.0477C28.6187 22.0477 29.5695 22.0477 30.5135 22.0477C31.1764 22.0535 31.1764 21.1826 30.5269 21.1826Z" fill="black"/>
<path d="M5.707 27.0868C4.70269 27.0868 3.70507 27.0868 2.70076 27.0868C2.86815 27.232 3.03553 27.3771 3.20292 27.5222C3.20292 25.5542 3.20292 23.5861 3.20292 21.6181C3.03553 21.7632 2.86815 21.9084 2.70076 22.0535C3.70507 22.0535 4.70269 22.0535 5.707 22.0535C5.53962 21.9084 5.37223 21.7632 5.20485 21.6181C5.20485 23.5861 5.20485 25.5542 5.20485 27.5222C5.20485 28.0854 6.20916 28.0854 6.20916 27.5222C6.20916 25.5542 6.20916 23.5861 6.20916 21.6181C6.20916 21.3801 5.98151 21.1827 5.707 21.1827C4.70269 21.1827 3.70507 21.1827 2.70076 21.1827C2.42625 21.1827 2.19861 21.3801 2.19861 21.6181C2.19861 23.5861 2.19861 25.5542 2.19861 27.5222C2.19861 27.7603 2.42625 27.9576 2.70076 27.9576C3.70507 27.9576 4.70269 27.9576 5.707 27.9576C6.35646 27.9576 6.35646 27.0868 5.707 27.0868Z" fill="black"/>
<path d="M30.3127 27.0868C29.3083 27.0868 28.3107 27.0868 27.3064 27.0868C27.4738 27.232 27.6412 27.3771 27.8086 27.5222C27.8086 25.5542 27.8086 23.5861 27.8086 21.6181C27.6412 21.7632 27.4738 21.9084 27.3064 22.0535C28.3107 22.0535 29.3083 22.0535 30.3127 22.0535C30.1453 21.9084 29.9779 21.7632 29.8105 21.6181C29.8105 23.5861 29.8105 25.5542 29.8105 27.5222C29.8105 28.0854 30.8148 28.0854 30.8148 27.5222C30.8148 25.5542 30.8148 23.5861 30.8148 21.6181C30.8148 21.3801 30.5872 21.1827 30.3127 21.1827C29.3083 21.1827 28.3107 21.1827 27.3064 21.1827C27.0319 21.1827 26.8043 21.3801 26.8043 21.6181C26.8043 23.5861 26.8043 25.5542 26.8043 27.5222C26.8043 27.7603 27.0319 27.9576 27.3064 27.9576C28.3107 27.9576 29.3083 27.9576 30.3127 27.9576C30.9554 27.9576 30.9554 27.0868 30.3127 27.0868Z" fill="black"/>
<path d="M16.0046 12.3816C16.0046 15.2437 16.0046 18.1 16.0046 20.9621C16.0046 21.1827 16.0046 21.4033 16.0046 21.6181C16.0046 22.1812 17.0089 22.1812 17.0089 21.6181C17.0089 18.756 17.0089 15.8997 17.0089 13.0377C17.0089 12.817 17.0089 12.5964 17.0089 12.3816C17.0089 11.8185 16.0046 11.8185 16.0046 12.3816Z" fill="black"/>
<path d="M5.707 17.4323C7.00591 17.4323 8.30482 17.4323 9.61042 17.4323C10.2599 17.4323 10.2599 16.5615 9.61042 16.5615C8.31151 16.5615 7.0126 16.5615 5.707 16.5615C5.05755 16.5615 5.05755 17.4323 5.707 17.4323Z" fill="black"/>
<path d="M22.6397 17.4323C23.9386 17.4323 25.2376 17.4323 26.5432 17.4323C27.1926 17.4323 27.1926 16.5615 26.5432 16.5615C25.2443 16.5615 23.9453 16.5615 22.6397 16.5615C21.9903 16.5615 21.9903 17.4323 22.6397 17.4323Z" fill="black"/>
<path d="M25.1773 9.5834C24.414 9.5834 23.6507 9.5834 22.8874 9.5834C22.5192 9.5834 22.1643 9.56598 21.8095 9.66468C21.0328 9.87367 20.5508 10.5181 20.524 11.2031C20.4972 11.8649 21.0328 12.4803 21.7224 12.7125C22.084 12.8345 22.4589 12.8228 22.8339 12.8228C23.6106 12.8228 24.3939 12.8228 25.1706 12.8228C25.82 12.8228 25.82 11.952 25.1706 11.952C24.5211 11.952 23.8717 11.952 23.2289 11.952C22.546 11.952 21.5551 12.0449 21.5283 11.2031C21.5149 10.7909 21.9367 10.4542 22.3987 10.4542C22.6598 10.4542 22.9142 10.4542 23.1754 10.4542C23.8449 10.4542 24.5144 10.4542 25.1773 10.4542C25.8267 10.4542 25.8267 9.5834 25.1773 9.5834Z" fill="black"/>
<path d="M25.6794 12.3816C25.6794 12.3642 25.6794 12.341 25.6794 12.3236C25.6794 12.0856 25.4518 11.8882 25.1773 11.8882C24.9028 11.8882 24.6751 12.0856 24.6751 12.3236C24.6751 12.341 24.6751 12.3642 24.6751 12.3816C24.6751 12.6197 24.9028 12.8171 25.1773 12.8171C25.4518 12.8171 25.6794 12.6197 25.6794 12.3816Z" fill="black"/>
<path d="M29.3083 12.3584C29.3083 11.5804 29.3083 10.7967 29.3083 10.0188C29.3083 9.78074 29.0807 9.58335 28.8062 9.58335C27.996 9.58335 27.1792 9.58335 26.369 9.58335C25.3379 9.58335 24.2533 9.50208 23.4632 10.1987C22.9343 10.6632 22.8606 11.3656 23.2356 11.923C23.6373 12.5093 24.4876 12.7938 25.2375 12.7938C26.0744 12.7938 26.9047 12.7938 27.7416 12.7938C28.0965 12.7938 28.4513 12.7938 28.8062 12.7938C29.4556 12.7938 29.4556 11.923 28.8062 11.923C27.996 11.923 27.1792 11.923 26.369 11.923C25.6258 11.923 24.2533 12.0971 24.0056 11.2727C23.8382 10.7154 24.7889 10.46 25.2375 10.4484C25.512 10.4426 25.7865 10.4484 26.0677 10.4484C26.9716 10.4484 27.8688 10.4484 28.7727 10.4484C28.7861 10.4484 28.7995 10.4484 28.8129 10.4484C28.6455 10.3032 28.4781 10.1581 28.3107 10.013C28.3107 10.7909 28.3107 11.5746 28.3107 12.3526C28.304 12.9215 29.3083 12.9215 29.3083 12.3584Z" fill="black"/>
<path d="M8.15751 4.16106C8.15751 2.91288 8.15751 1.66471 8.15751 0.422346C8.15751 -0.140782 7.1532 -0.140782 7.1532 0.422346C7.1532 1.67052 7.1532 2.91869 7.1532 4.16106C7.1532 4.72418 8.15751 4.72418 8.15751 4.16106Z" fill="black"/>
<path d="M5.49951 8.37585C4.85675 7.59211 4.76301 6.60518 5.31873 5.76339C5.7941 5.03771 6.70468 4.61391 7.66212 4.6023C8.62626 4.59069 9.51005 5.06093 10.0055 5.76339C10.5813 6.58777 10.4474 7.60953 9.82474 8.37585C9.4498 8.83448 10.3202 9.26988 10.6951 8.81706C11.5388 7.78369 11.5923 6.41941 10.8759 5.32218C10.2265 4.32945 8.96773 3.7431 7.66882 3.72568C6.34313 3.71407 5.12456 4.35847 4.44833 5.32218C3.70514 6.39038 3.80557 7.80691 4.6291 8.81706C5.00405 9.26988 5.87445 8.83448 5.49951 8.37585Z" fill="black"/>
<path d="M10.2465 8.16107C8.51913 8.16107 6.79171 8.16107 5.0643 8.16107C4.41485 8.16107 4.41485 9.03189 5.0643 9.03189C6.79171 9.03189 8.51913 9.03189 10.2465 9.03189C10.896 9.03189 10.896 8.16107 10.2465 8.16107Z" fill="black"/>
</svg>
