<svg width="35" height="35" viewBox="0 0 35 35" fill="none" xmlns="http://www.w3.org/2000/svg">
<g clip-path="url(#clip0_98_12)">
<path d="M33.9051 17.4994C33.9051 12.9693 32.0684 8.86763 29.1003 5.89845C26.1312 2.93041 22.0295 1.09377 17.4994 1.09377C12.9694 1.09377 8.86763 2.93041 5.89959 5.89845C2.93041 8.86763 1.09377 12.9693 1.09377 17.4994C1.09377 22.0295 2.93041 26.1324 5.89845 29.1003C8.86649 32.0683 12.9694 33.905 17.4983 33.905C22.0283 33.905 26.1301 32.0684 29.0993 29.1003C32.0684 26.1324 33.9051 22.0306 33.9051 17.4994ZM29.874 5.12596C33.0403 8.29221 35 12.6674 35 17.5006C35 22.3326 33.0415 26.7077 29.874 29.8752C26.7066 33.0414 22.3314 35 17.4994 35C12.6674 35 8.29227 33.0415 5.12482 29.874C1.95971 26.7077 0 22.3326 0 17.4994C0 12.6674 1.95856 8.29221 5.12596 5.12482C8.29113 1.95971 12.6663 0 17.4994 0C22.3314 0 26.7066 1.95856 29.874 5.12596Z" fill="#02539C"/>
<path d="M16.9536 25.157C17.2555 25.157 17.5005 25.4019 17.5005 25.7038C17.5005 26.0057 17.2555 26.2507 16.9536 26.2507H12.5785C12.2766 26.2507 12.0316 26.0058 12.0316 25.7038C12.0316 25.4019 12.2766 25.157 12.5785 25.157H16.9536Z" fill="#02539C"/>
<path d="M19.1412 19.6893C18.8393 19.6893 18.5944 19.4443 18.5944 19.1424C18.5944 18.8405 18.8392 18.5956 19.1412 18.5956C20.1974 18.5956 21.1556 18.1672 21.8483 17.4744L21.8791 17.446C22.5524 16.7578 22.9706 15.8121 22.9706 14.7685C22.9706 13.7112 22.5411 12.753 21.8483 12.0614L21.8199 12.0306C21.1305 11.355 20.1849 10.938 19.1412 10.938H12.5785C12.2766 10.938 12.0316 10.693 12.0316 10.3911C12.0316 10.0892 12.2766 9.84424 12.5785 9.84424H19.1412C20.48 9.84424 21.6979 10.382 22.5866 11.2548L22.6219 11.2867C23.5118 12.1765 24.0644 13.4082 24.0644 14.7674C24.0644 16.1062 23.5266 17.323 22.655 18.2117L22.623 18.247C21.7321 19.1378 20.5005 19.6893 19.1412 19.6893Z" fill="#02539C"/>
<path d="M12.5774 19.6892C12.2755 19.6892 12.0305 19.4442 12.0305 19.1423C12.0305 18.8404 12.2755 18.5955 12.5774 18.5955H19.139C19.4409 18.5955 19.6859 18.8404 19.6859 19.1423C19.6859 19.4442 19.441 19.6892 19.139 19.6892H12.5774Z" fill="#02539C"/>
<path d="M15.3119 25.7039C15.3119 26.0058 15.0669 26.2508 14.765 26.2508C14.4631 26.2508 14.2181 26.0059 14.2181 25.7039V10.392C14.2181 10.0901 14.4631 9.84521 14.765 9.84521C15.0669 9.84521 15.3119 10.0902 15.3119 10.392V25.7039Z" fill="#02539C"/>
<path d="M12.5774 21.8769C12.2755 21.8769 12.0305 21.6319 12.0305 21.3301C12.0305 21.0282 12.2755 20.7832 12.5774 20.7832H20.2351C20.537 20.7832 20.7819 21.0282 20.7819 21.3301C20.7819 21.6319 20.537 21.8769 20.2351 21.8769H12.5774Z" fill="#02539C"/>
</g>
<defs>
<clipPath id="clip0_98_12">
<rect width="35" height="35" fill="white"/>
</clipPath>
</defs>
</svg>
