<svg width="48" height="26" viewBox="0 0 48 26" fill="none" xmlns="http://www.w3.org/2000/svg">
<g clip-path="url(#clip0_83_60)">
<path d="M4.42499 8.3943V2.89715C4.42499 2.08001 5.09999 1.41144 5.92499 1.41144H21.75C22.575 1.41144 23.25 2.08001 23.25 2.89715V15.5257" stroke="#6B6C6E" stroke-width="2"/>
<path d="M23.25 15.6V2.97143C23.25 2.15429 23.925 1.48572 24.75 1.48572H41.325C42.15 1.48572 42.825 2.15429 42.825 2.97143V8.46857" stroke="#6B6C6E" stroke-width="2"/>
<path fill-rule="evenodd" clip-rule="evenodd" d="M45.075 8.91431H42.75C41.925 8.91431 41.25 9.58288 41.25 10.4V15.6H6V10.4C6 9.58288 5.325 8.91431 4.5 8.91431H2.25C1.425 8.91431 0.75 9.58288 0.75 10.4V20.1315C0.75 20.9486 1.425 21.6172 2.25 21.6172H4.5V23.1029C4.5 23.92 5.175 24.5886 6 24.5886H8.325C9.15 24.5886 9.825 23.92 9.825 23.1029V21.6172H36.825V23.1029C36.825 23.92 37.5 24.5886 38.325 24.5886H41.4C42.225 24.5886 42.9 23.92 42.9 23.1029V21.6172H45.15C45.975 21.6172 46.65 20.9486 46.65 20.1315V10.4C46.5 9.58288 45.825 8.91431 45.075 8.91431Z" stroke="#6B6C6E" stroke-width="2"/>
<path d="M8.25 19.3886H38.25" stroke="#6B6C6E" stroke-width="2"/>
</g>
<defs>
<clipPath id="clip0_83_60">
<rect width="48" height="26" fill="white"/>
</clipPath>
</defs>
</svg>
